<?xml version="1.0" encoding="UTF-8"?><svg id="Layer_1" xmlns="http://www.w3.org/2000/svg" viewBox="0 0 769.1 303.47"><defs><style>.cls-1{fill:#005a9c;stroke-width:0px;}</style></defs><path class="cls-1" d="m417.41,118.17l-32.85-53.32-66.92,108.59h35.9c10.38-27.78,34.38-48.9,63.87-55.27Z"/><path class="cls-1" d="m421.27,124.44c-27.41,5.05-49.99,23.86-60.32,49.01h90.52l-30.2-49.01Z"/><path class="cls-1" d="m92.32,237.4l-.37.9h-6.33l-10.71-15.56h-5.01v15.56h-6.17v-37.34h11.76c8.39,0,12.92,3.64,12.92,11.07,0,4.85-2.53,8.33-7.23,9.81l11.13,15.56Zm-22.41-31.27v11.6h4.64c5.38,0,7.86-1.58,7.86-5.7,0-4.32-2.53-5.91-7.86-5.91h-4.64Z"/><path class="cls-1" d="m100.4,227.49v.26c0,4.32,2.9,6.96,6.75,6.96,2.69,0,4.59-1.27,6.17-3.8l.47-.11,4.38,2.11c-2.27,4.11-6.12,6.38-11.18,6.38-7.59,0-12.55-5.27-12.55-12.76s5.06-12.82,12.34-12.82,11.92,4.8,11.92,12.76c0,.32,0,.53-.05,1h-18.25Zm.11-3.53h12.29c-.21-3.64-2.53-5.8-6.01-5.8s-5.75,2.16-6.28,5.8Z"/><path class="cls-1" d="m121.81,233.98l3.74-2.48.32.05c1.32,2.16,3.22,3.43,5.59,3.43s3.96-1.11,3.96-2.74c0-1.32-.79-2.43-5.01-3.9-5.96-2.16-7.59-4.43-7.59-7.7,0-3.85,3.32-6.91,8.81-6.91,4.32,0,7.65,2,8.97,5.12l-3.43,2.27-.42-.05c-.9-1.9-2.64-3.01-4.9-3.01s-3.43,1.05-3.43,2.48c0,1.27.58,2.16,5.06,3.85,5.75,2.16,7.54,4.27,7.54,7.81,0,4.11-3.69,7.12-9.33,7.12-4.48,0-7.91-1.85-9.86-5.33Z"/><path class="cls-1" d="m151.03,227.49v.26c0,4.32,2.9,6.96,6.75,6.96,2.69,0,4.59-1.27,6.17-3.8l.47-.11,4.38,2.11c-2.27,4.11-6.12,6.38-11.18,6.38-7.59,0-12.55-5.27-12.55-12.76s5.06-12.82,12.34-12.82,11.92,4.8,11.92,12.76c0,.32,0,.53-.05,1h-18.25Zm.11-3.53h12.29c-.21-3.64-2.53-5.8-6.01-5.8s-5.75,2.16-6.28,5.8Z"/><path class="cls-1" d="m196.66,234.77v3.8c-1.32.37-2.32.58-3.85.58-2.69,0-4.06-1.32-4.38-3.32-2.37,2.43-4.8,3.48-7.86,3.48-4.27,0-6.91-2.48-6.91-6.22,0-4.38,3.9-7.33,14.35-8.75v-1.37c0-3.01-1.32-4.43-3.74-4.43s-4.59,1.37-6.33,3.8l-.42.05-3.53-2.43c2.22-3.74,6.33-6.22,11.02-6.22,5.54,0,8.75,2.95,8.75,8.49v11.34c0,1.05.26,1.37,1.05,1.37.42,0,.79-.11,1.42-.37l.42.21Zm-14.24.58c2.11,0,3.96-.9,5.59-2.48v-5.33c-6.38,1.16-8.7,2.64-8.7,5.06,0,1.69,1.05,2.74,3.11,2.74Z"/><path class="cls-1" d="m201.89,238.3v-23.57h5.33v4.48c1.95-3.85,4.48-5.49,7.49-5.49,2.48,0,4.38,1.37,5.33,4.43l-4.75,2.64-.47-.11c-.53-1.32-1.27-1.79-2.43-1.79-2.37,0-4.75,3.06-4.75,8.54v10.86h-5.75Z"/><path class="cls-1" d="m220.08,226.54c0-7.44,5.06-12.82,12.39-12.82,4.69,0,8.81,2.06,11.29,6.43l-4.27,2.58-.42-.05c-1.79-2.95-3.8-4.06-6.43-4.06-3.85,0-6.75,3-6.75,7.86s2.85,7.91,6.8,7.91c2.74,0,4.75-1.16,6.49-4.11l.42-.05,4.22,2.53c-2.48,4.38-6.54,6.54-11.34,6.54-7.54,0-12.39-5.22-12.39-12.76Z"/><path class="cls-1" d="m248.99,199.65h5.75v11.5c0,2.58,0,5.12-.11,7.59,2-3.27,4.96-5.01,8.44-5.01,5.48,0,8.7,3.32,8.7,9.33v15.24h-5.75v-13.13c0-4.54-1.63-6.38-5.01-6.38-3.74,0-6.28,3.16-6.28,7.86v11.65h-5.75v-38.66Z"/><path class="cls-1" d="m288.05,219.63c0-11.44,8.44-19.67,19.51-19.67,7.54,0,13.39,3.22,16.98,9.86l-4.43,2.85-.95-.16c-2.69-4.69-6.38-6.8-11.44-6.8-7.49,0-13.08,5.85-13.08,13.92s5.7,13.92,13.18,13.92c5.43,0,8.97-2.06,11.6-6.7l.9-.21,4.38,2.9c-3.85,6.59-9.49,9.76-17.09,9.76-11.23,0-19.57-8.23-19.57-19.67Z"/><path class="cls-1" d="m328.46,226.49c0-7.22,5.59-12.76,13.18-12.76s13.13,5.54,13.13,12.76-5.64,12.81-13.13,12.81-13.18-5.59-13.18-12.81Zm20.51,0c0-4.32-3.11-7.7-7.33-7.7s-7.33,3.38-7.33,7.7,3.16,7.75,7.33,7.75,7.33-3.38,7.33-7.75Z"/><path class="cls-1" d="m381.73,238.3h-5.7v-3.96c-1.95,3.27-4.96,4.96-8.17,4.96-5.22,0-8.33-3.32-8.33-9.54v-15.03h5.75v13.39c0,4.27,1.58,6.12,4.69,6.12,3.48,0,6.01-3.06,6.01-7.91v-11.6h5.75v23.57Z"/><path class="cls-1" d="m388.86,214.73h5.64v4.01c2-3.27,4.96-5.01,8.44-5.01,5.48,0,8.7,3.32,8.7,9.33v15.24h-5.75v-13.13c0-4.54-1.64-6.38-5.01-6.38-3.74,0-6.27,3.16-6.27,7.86v11.65h-5.75v-23.57Z"/><path class="cls-1" d="m416.44,226.54c0-7.44,5.06-12.82,12.39-12.82,4.69,0,8.81,2.06,11.29,6.43l-4.27,2.58-.42-.05c-1.79-2.95-3.8-4.06-6.43-4.06-3.85,0-6.75,3-6.75,7.86s2.85,7.91,6.8,7.91c2.74,0,4.75-1.16,6.49-4.11l.42-.05,4.22,2.53c-2.48,4.38-6.54,6.54-11.34,6.54-7.54,0-12.39-5.22-12.39-12.76Z"/><path class="cls-1" d="m444.93,204.18c0-2,1.64-3.53,3.8-3.53s3.74,1.53,3.74,3.59-1.63,3.53-3.74,3.53-3.8-1.48-3.8-3.59Zm.9,34.12v-23.57h5.75v23.57h-5.75Z"/><path class="cls-1" d="m459.17,238.3v-38.66h5.75v38.66h-5.75Z"/><path class="cls-1" d="m478.87,226.49c0-7.22,5.59-12.76,13.19-12.76s13.13,5.54,13.13,12.76-5.64,12.81-13.13,12.81-13.19-5.59-13.19-12.81Zm20.51,0c0-4.32-3.11-7.7-7.33-7.7s-7.33,3.38-7.33,7.7,3.16,7.75,7.33,7.75,7.33-3.38,7.33-7.75Z"/><path class="cls-1" d="m523.39,204.6c-.84-.37-1.69-.53-2.32-.53-2.11,0-2.95,1.21-2.95,5.17v5.49h5.43v4.59h-5.43v18.99h-5.75v-18.99h-4.38v-4.59h4.38v-5.22c0-7.75,2.32-10.49,7.75-10.49,1.27,0,2.8.26,4.06.63l-.26,4.75-.53.21Z"/><path class="cls-1" d="m540.8,200.96h21.36l.63,5.38h-15.87v10.49h14.61v5.22h-14.61v16.24h-6.12v-37.34Z"/><path class="cls-1" d="m567.75,204.18c0-2,1.64-3.53,3.8-3.53s3.74,1.53,3.74,3.59-1.63,3.53-3.74,3.53-3.8-1.48-3.8-3.59Zm.9,34.12v-23.57h5.75v23.57h-5.75Z"/><path class="cls-1" d="m581.89,214.73h5.64v4.01c2-3.27,4.96-5.01,8.44-5.01,5.49,0,8.7,3.32,8.7,9.33v15.24h-5.75v-13.13c0-4.54-1.63-6.38-5.01-6.38-3.74,0-6.28,3.16-6.28,7.86v11.65h-5.75v-23.57Z"/><path class="cls-1" d="m612.27,238.3v-38.66h5.75v38.66h-5.75Z"/><path class="cls-1" d="m646.76,234.77v3.8c-1.32.37-2.32.58-3.85.58-2.69,0-4.06-1.32-4.38-3.32-2.37,2.43-4.8,3.48-7.86,3.48-4.27,0-6.91-2.48-6.91-6.22,0-4.38,3.9-7.33,14.34-8.75v-1.37c0-3.01-1.32-4.43-3.74-4.43s-4.59,1.37-6.33,3.8l-.42.05-3.53-2.43c2.22-3.74,6.33-6.22,11.02-6.22,5.54,0,8.76,2.95,8.76,8.49v11.34c0,1.05.26,1.37,1.05,1.37.42,0,.79-.11,1.42-.37l.42.21Zm-14.24.58c2.11,0,3.96-.9,5.59-2.48v-5.33c-6.38,1.16-8.7,2.64-8.7,5.06,0,1.69,1.05,2.74,3.11,2.74Z"/><path class="cls-1" d="m651.78,214.73h5.64v4.01c2-3.27,4.96-5.01,8.44-5.01,5.49,0,8.7,3.32,8.7,9.33v15.24h-5.75v-13.13c0-4.54-1.63-6.38-5.01-6.38-3.74,0-6.28,3.16-6.28,7.86v11.65h-5.75v-23.57Z"/><path class="cls-1" d="m680.32,226.49c0-7.59,4.8-12.76,10.86-12.76,3.38,0,6.54,1.79,8.49,5.01-.05-2.37-.05-5.01-.05-7.65v-11.44h5.75v38.66h-5.54v-3.96c-1.79,3.11-5.22,4.96-8.81,4.96-6.38,0-10.7-4.96-10.7-12.81Zm19.46.05c0-4.54-2.9-7.81-6.91-7.81s-6.75,3.01-6.75,7.81,2.53,7.75,6.54,7.75c4.32,0,7.12-3.11,7.12-7.75Z"/></svg>